G75*
G70*
%OFA0B0*%
%FSLAX24Y24*%
%IPPOS*%
%LPD*%
%AMOC8*
5,1,8,0,0,1.08239X$1,22.5*
%
%ADD10C,0.0000*%
D10*
X005261Y002280D02*
X024259Y002280D01*
X024325Y002282D01*
X024391Y002287D01*
X024457Y002297D01*
X024522Y002310D01*
X024586Y002326D01*
X024649Y002346D01*
X024711Y002370D01*
X024771Y002397D01*
X024830Y002427D01*
X024887Y002461D01*
X024942Y002498D01*
X024995Y002538D01*
X025046Y002580D01*
X025094Y002626D01*
X025140Y002674D01*
X025182Y002725D01*
X025222Y002778D01*
X025259Y002833D01*
X025293Y002890D01*
X025323Y002949D01*
X025350Y003009D01*
X025374Y003071D01*
X025394Y003134D01*
X025410Y003198D01*
X025423Y003263D01*
X025433Y003329D01*
X025438Y003395D01*
X025440Y003461D01*
X025440Y010251D01*
X025438Y010317D01*
X025433Y010383D01*
X025423Y010449D01*
X025410Y010514D01*
X025394Y010578D01*
X025374Y010641D01*
X025350Y010703D01*
X025323Y010763D01*
X025293Y010822D01*
X025259Y010879D01*
X025222Y010934D01*
X025182Y010987D01*
X025140Y011038D01*
X025094Y011086D01*
X025046Y011132D01*
X024995Y011174D01*
X024942Y011214D01*
X024887Y011251D01*
X024830Y011285D01*
X024771Y011315D01*
X024711Y011342D01*
X024649Y011366D01*
X024586Y011386D01*
X024522Y011402D01*
X024457Y011415D01*
X024391Y011425D01*
X024325Y011430D01*
X024259Y011432D01*
X005261Y011432D01*
X005195Y011430D01*
X005129Y011425D01*
X005063Y011415D01*
X004998Y011402D01*
X004934Y011386D01*
X004871Y011366D01*
X004809Y011342D01*
X004749Y011315D01*
X004690Y011285D01*
X004633Y011251D01*
X004578Y011214D01*
X004525Y011174D01*
X004474Y011132D01*
X004426Y011086D01*
X004380Y011038D01*
X004338Y010987D01*
X004298Y010934D01*
X004261Y010879D01*
X004227Y010822D01*
X004197Y010763D01*
X004170Y010703D01*
X004146Y010641D01*
X004126Y010578D01*
X004110Y010514D01*
X004097Y010449D01*
X004087Y010383D01*
X004082Y010317D01*
X004080Y010251D01*
X004080Y003461D01*
X004082Y003395D01*
X004087Y003329D01*
X004097Y003263D01*
X004110Y003198D01*
X004126Y003134D01*
X004146Y003071D01*
X004170Y003009D01*
X004197Y002949D01*
X004227Y002890D01*
X004261Y002833D01*
X004298Y002778D01*
X004338Y002725D01*
X004380Y002674D01*
X004426Y002626D01*
X004474Y002580D01*
X004525Y002538D01*
X004578Y002498D01*
X004633Y002461D01*
X004690Y002427D01*
X004749Y002397D01*
X004809Y002370D01*
X004871Y002346D01*
X004934Y002326D01*
X004998Y002310D01*
X005063Y002297D01*
X005129Y002287D01*
X005195Y002282D01*
X005261Y002280D01*
M02*
