%
M48
M72
T01C0.0320
T02C0.0400
%
T01
X8680Y4680
X9680Y4680
X10680Y4680
X11680Y4680
X12680Y4680
X13680Y4680
X14680Y4680
X15680Y4680
X16680Y4680
X17680Y4680
X18680Y4680
X19680Y4680
X20680Y4680
X21680Y4680
X23680Y4980
X22680Y5980
X24680Y5980
X21680Y7680
X20680Y7680
X19680Y7680
X18680Y7680
X17680Y7680
X16680Y7680
X15680Y7680
X14680Y7680
X13680Y7680
X12680Y7680
X11680Y7680
X10680Y7680
X9680Y7680
X8680Y7680
X11780Y8780
X12780Y8780
X14530Y9280
X12780Y9780
X11780Y9780
X7580Y9380
X7580Y5380
X16430Y9280
X18180Y9180
X22180Y9180
T02
X5180Y3180
X6180Y3180
X7180Y3180
X8180Y3180
X9180Y3180
X10180Y3180
X11180Y3180
X12180Y3180
X13180Y3180
X14180Y3180
X15180Y3180
X16180Y3180
X17180Y3180
X18180Y3180
X19180Y3180
X20180Y3180
X21180Y3180
X22180Y3180
X23180Y3180
X24180Y3180
X24280Y8380
X23280Y8380
X23280Y9380
X24280Y9380
X24280Y10380
X23280Y10380
X5680Y8680
X5680Y7680
X5680Y6680
X5680Y5680
M30
