G75*
G70*
%OFA0B0*%
%FSLAX24Y24*%
%IPPOS*%
%LPD*%
%AMOC8*
5,1,8,0,0,1.08239X$1,22.5*
%
%ADD10R,0.0740X0.0740*%
%ADD11C,0.0740*%
%ADD12C,0.0480*%
%ADD13C,0.0480*%
%ADD14OC8,0.0480*%
%ADD15R,0.0600X0.0600*%
%ADD16OC8,0.0600*%
%ADD17C,0.0600*%
%ADD18C,0.0100*%
%ADD19C,0.0160*%
D10*
X005180Y003180D03*
D11*
X006180Y003180D03*
X007180Y003180D03*
X008180Y003180D03*
X009180Y003180D03*
X010180Y003180D03*
X011180Y003180D03*
X012180Y003180D03*
X013180Y003180D03*
X014180Y003180D03*
X015180Y003180D03*
X016180Y003180D03*
X017180Y003180D03*
X018180Y003180D03*
X019180Y003180D03*
X020180Y003180D03*
X021180Y003180D03*
X022180Y003180D03*
X023180Y003180D03*
X024180Y003180D03*
D12*
X021680Y004440D02*
X021680Y004920D01*
X020680Y004920D02*
X020680Y004440D01*
X019680Y004440D02*
X019680Y004920D01*
X018680Y004920D02*
X018680Y004440D01*
X017680Y004440D02*
X017680Y004920D01*
X016680Y004920D02*
X016680Y004440D01*
X015680Y004440D02*
X015680Y004920D01*
X014680Y004920D02*
X014680Y004440D01*
X013680Y004440D02*
X013680Y004920D01*
X012680Y004920D02*
X012680Y004440D01*
X011680Y004440D02*
X011680Y004920D01*
X010680Y004920D02*
X010680Y004440D01*
X009680Y004440D02*
X009680Y004920D01*
X008680Y004920D02*
X008680Y004440D01*
X008680Y007440D02*
X008680Y007920D01*
X009680Y007920D02*
X009680Y007440D01*
X010680Y007440D02*
X010680Y007920D01*
X011680Y007920D02*
X011680Y007440D01*
X012680Y007440D02*
X012680Y007920D01*
X013680Y007920D02*
X013680Y007440D01*
X014680Y007440D02*
X014680Y007920D01*
X015680Y007920D02*
X015680Y007440D01*
X016680Y007440D02*
X016680Y007920D01*
X017680Y007920D02*
X017680Y007440D01*
X018680Y007440D02*
X018680Y007920D01*
X019680Y007920D02*
X019680Y007440D01*
X020680Y007440D02*
X020680Y007920D01*
X021680Y007920D02*
X021680Y007440D01*
D13*
X016430Y009280D03*
X014530Y009280D03*
D14*
X012780Y008780D03*
X011780Y008780D03*
X011780Y009780D03*
X012780Y009780D03*
X018180Y009180D03*
X022180Y009180D03*
X022680Y005980D03*
X023680Y004980D03*
X024680Y005980D03*
X007580Y005380D03*
X007580Y009380D03*
D15*
X024280Y008380D03*
D16*
X023280Y008380D03*
X023280Y009380D03*
X024280Y009380D03*
X024280Y010380D03*
X023280Y010380D03*
D17*
X005980Y008680D02*
X005380Y008680D01*
X005380Y007680D02*
X005980Y007680D01*
X005980Y006680D02*
X005380Y006680D01*
X005380Y005680D02*
X005980Y005680D01*
D18*
X005680Y005680D02*
X007380Y003980D01*
X014080Y003980D01*
X014680Y004580D01*
X014680Y004680D01*
X014680Y006680D01*
X015680Y007680D01*
X016680Y007680D01*
X018180Y009180D01*
X018980Y008380D01*
X023280Y008380D01*
X023780Y008180D02*
X023780Y008980D01*
X023380Y009380D01*
X023280Y009380D01*
X024280Y009380D02*
X024380Y009380D01*
X024880Y008880D01*
X024880Y007380D01*
X023880Y006380D01*
X018980Y006380D01*
X017680Y007680D01*
X018680Y007680D02*
X019680Y006680D01*
X022680Y006680D01*
X024280Y008280D01*
X024280Y008380D01*
X023780Y008180D02*
X022580Y006980D01*
X019880Y006980D01*
X019680Y007180D01*
X019680Y007680D01*
X023680Y004980D02*
X022380Y003680D01*
X007680Y003680D01*
X007180Y003180D01*
X009680Y004680D02*
X006680Y007680D01*
X005680Y007680D01*
X005680Y008680D02*
X006680Y008680D01*
X010680Y004680D01*
X022180Y003180D02*
X022680Y002680D01*
X024680Y002680D01*
X024880Y002880D01*
X024880Y003280D01*
X024680Y003480D01*
X024680Y005980D01*
D19*
X004589Y002789D02*
X004414Y003029D01*
X004322Y003312D01*
X004310Y003461D01*
X004310Y010251D01*
X004322Y010400D01*
X004414Y010683D01*
X004589Y010923D01*
X004829Y011098D01*
X005112Y011190D01*
X005261Y011202D01*
X024259Y011202D01*
X024408Y011190D01*
X024691Y011098D01*
X024931Y010923D01*
X025106Y010683D01*
X025198Y010400D01*
X025210Y010251D01*
X025210Y003461D01*
X025198Y003312D01*
X025130Y003103D01*
X025130Y003330D01*
X025092Y003422D01*
X024930Y003584D01*
X024930Y005608D01*
X025120Y005798D01*
X025120Y006162D01*
X024862Y006420D01*
X024498Y006420D01*
X024240Y006162D01*
X024240Y005798D01*
X024430Y005608D01*
X024430Y003430D01*
X024468Y003338D01*
X024538Y003268D01*
X024630Y003176D01*
X024630Y002984D01*
X024576Y002930D01*
X023693Y002930D01*
X023750Y003067D01*
X023750Y003293D01*
X023663Y003503D01*
X023503Y003663D01*
X023293Y003750D01*
X023067Y003750D01*
X022857Y003663D01*
X022697Y003503D01*
X022680Y003462D01*
X022663Y003503D01*
X022610Y003556D01*
X023594Y004540D01*
X023862Y004540D01*
X024120Y004798D01*
X024120Y005162D01*
X023862Y005420D01*
X023498Y005420D01*
X023240Y005162D01*
X023240Y004894D01*
X022276Y003930D01*
X014384Y003930D01*
X014494Y004041D01*
X014592Y004000D01*
X014768Y004000D01*
X014929Y004067D01*
X015053Y004191D01*
X015120Y004352D01*
X015120Y005008D01*
X015053Y005169D01*
X014930Y005292D01*
X014930Y006576D01*
X015426Y007072D01*
X015431Y007067D01*
X015592Y007000D01*
X015768Y007000D01*
X015929Y007067D01*
X016053Y007191D01*
X016120Y007352D01*
X016120Y007430D01*
X016240Y007430D01*
X016240Y007352D01*
X016307Y007191D01*
X016431Y007067D01*
X016592Y007000D01*
X016768Y007000D01*
X016929Y007067D01*
X017053Y007191D01*
X017120Y007352D01*
X017120Y007766D01*
X017240Y007886D01*
X017240Y007886D01*
X017240Y007352D01*
X017307Y007191D01*
X017431Y007067D01*
X017592Y007000D01*
X017768Y007000D01*
X017929Y007067D01*
X017934Y007072D01*
X018838Y006168D01*
X018930Y006130D01*
X023930Y006130D01*
X024022Y006168D01*
X024092Y006238D01*
X025092Y007238D01*
X025130Y007330D01*
X025130Y008930D01*
X025092Y009022D01*
X024780Y009334D01*
X024780Y009587D01*
X024487Y009880D01*
X024780Y010173D01*
X024780Y010587D01*
X024487Y010880D01*
X024073Y010880D01*
X023780Y010587D01*
X023780Y010173D01*
X024073Y009880D01*
X024487Y009880D01*
X024073Y009880D01*
X023780Y009587D01*
X023487Y009880D01*
X023073Y009880D01*
X022780Y009587D01*
X022780Y009173D01*
X023073Y008880D01*
X022823Y008630D01*
X019084Y008630D01*
X018620Y009094D01*
X018620Y009362D01*
X018362Y009620D01*
X017998Y009620D01*
X017740Y009362D01*
X017740Y009094D01*
X016934Y008288D01*
X016929Y008293D01*
X016768Y008360D01*
X016592Y008360D01*
X016431Y008293D01*
X016307Y008169D01*
X016240Y008008D01*
X016240Y007930D01*
X016120Y007930D01*
X016120Y008008D01*
X016053Y008169D01*
X015929Y008293D01*
X015768Y008360D01*
X015592Y008360D01*
X015431Y008293D01*
X015307Y008169D01*
X015240Y008008D01*
X015240Y007594D01*
X014468Y006822D01*
X014430Y006730D01*
X014430Y005292D01*
X014307Y005169D01*
X014240Y005008D01*
X014240Y004494D01*
X014120Y004374D01*
X014120Y005008D01*
X014053Y005169D01*
X013929Y005293D01*
X013768Y005360D01*
X013592Y005360D01*
X013431Y005293D01*
X013307Y005169D01*
X013240Y005008D01*
X013240Y004352D01*
X013291Y004230D01*
X013069Y004230D01*
X013120Y004352D01*
X013120Y005008D01*
X013053Y005169D01*
X012929Y005293D01*
X012768Y005360D01*
X012592Y005360D01*
X012431Y005293D01*
X012307Y005169D01*
X012240Y005008D01*
X012240Y004352D01*
X012291Y004230D01*
X012069Y004230D01*
X012120Y004352D01*
X012120Y005008D01*
X012053Y005169D01*
X011929Y005293D01*
X011768Y005360D01*
X011592Y005360D01*
X011431Y005293D01*
X011307Y005169D01*
X011240Y005008D01*
X011240Y004352D01*
X011291Y004230D01*
X011069Y004230D01*
X011120Y004352D01*
X011120Y005008D01*
X011053Y005169D01*
X010929Y005293D01*
X010768Y005360D01*
X010592Y005360D01*
X010431Y005293D01*
X010426Y005288D01*
X008714Y007000D01*
X008768Y007000D01*
X008929Y007067D01*
X009053Y007191D01*
X009120Y007352D01*
X009120Y008008D01*
X009053Y008169D01*
X008929Y008293D01*
X008768Y008360D01*
X008592Y008360D01*
X008431Y008293D01*
X008307Y008169D01*
X008240Y008008D01*
X008240Y007474D01*
X006822Y008892D01*
X006730Y008930D01*
X006418Y008930D01*
X006404Y008963D01*
X006263Y009104D01*
X006079Y009180D01*
X005281Y009180D01*
X005097Y009104D01*
X004956Y008963D01*
X004880Y008779D01*
X004880Y008581D01*
X004956Y008397D01*
X005097Y008256D01*
X005281Y008180D01*
X005097Y008104D01*
X004956Y007963D01*
X004880Y007779D01*
X004880Y007581D01*
X004956Y007397D01*
X005097Y007256D01*
X005281Y007180D01*
X006079Y007180D01*
X006263Y007256D01*
X006404Y007397D01*
X006418Y007430D01*
X006576Y007430D01*
X008646Y005360D01*
X008592Y005360D01*
X008431Y005293D01*
X008307Y005169D01*
X008240Y005008D01*
X008240Y004352D01*
X008291Y004230D01*
X007484Y004230D01*
X006360Y005353D01*
X006404Y005397D01*
X006480Y005581D01*
X006480Y005779D01*
X006404Y005963D01*
X006263Y006104D01*
X006079Y006180D01*
X005281Y006180D01*
X005097Y006104D01*
X004956Y005963D01*
X004880Y005779D01*
X004880Y005581D01*
X004956Y005397D01*
X005097Y005256D01*
X005281Y005180D01*
X005826Y005180D01*
X007238Y003768D01*
X007282Y003750D01*
X007067Y003750D01*
X006857Y003663D01*
X006697Y003503D01*
X006680Y003462D01*
X006663Y003503D01*
X006503Y003663D01*
X006293Y003750D01*
X006067Y003750D01*
X005857Y003663D01*
X005750Y003556D01*
X005750Y003633D01*
X005633Y003750D01*
X004727Y003750D01*
X004610Y003633D01*
X004610Y002773D01*
X004589Y002789D01*
X004570Y002814D02*
X004610Y002814D01*
X004610Y002973D02*
X004455Y002973D01*
X004381Y003131D02*
X004610Y003131D01*
X004610Y003290D02*
X004329Y003290D01*
X004311Y003448D02*
X004610Y003448D01*
X004610Y003607D02*
X004310Y003607D01*
X004310Y003765D02*
X007246Y003765D01*
X007083Y003924D02*
X004310Y003924D01*
X004310Y004082D02*
X006924Y004082D01*
X006766Y004241D02*
X004310Y004241D01*
X004310Y004399D02*
X006607Y004399D01*
X006449Y004558D02*
X004310Y004558D01*
X004310Y004716D02*
X006290Y004716D01*
X006132Y004875D02*
X004310Y004875D01*
X004310Y005033D02*
X005973Y005033D01*
X006364Y005350D02*
X007140Y005350D01*
X007140Y005198D02*
X007398Y004940D01*
X007762Y004940D01*
X008020Y005198D01*
X008020Y005562D01*
X007762Y005820D01*
X007398Y005820D01*
X007140Y005562D01*
X007140Y005198D01*
X007146Y005192D02*
X006522Y005192D01*
X006681Y005033D02*
X007305Y005033D01*
X007855Y005033D02*
X008251Y005033D01*
X008240Y004875D02*
X006839Y004875D01*
X006998Y004716D02*
X008240Y004716D01*
X008240Y004558D02*
X007156Y004558D01*
X007315Y004399D02*
X008240Y004399D01*
X008286Y004241D02*
X007473Y004241D01*
X006800Y003607D02*
X006560Y003607D01*
X005800Y003607D02*
X005750Y003607D01*
X005253Y005192D02*
X004310Y005192D01*
X004310Y005350D02*
X005003Y005350D01*
X004910Y005509D02*
X004310Y005509D01*
X004310Y005667D02*
X004880Y005667D01*
X004899Y005826D02*
X004310Y005826D01*
X004310Y005984D02*
X004977Y005984D01*
X005190Y006143D02*
X004310Y006143D01*
X004310Y006301D02*
X007705Y006301D01*
X007547Y006460D02*
X004310Y006460D01*
X004310Y006618D02*
X007388Y006618D01*
X007230Y006777D02*
X004310Y006777D01*
X004310Y006935D02*
X007071Y006935D01*
X006913Y007094D02*
X004310Y007094D01*
X004310Y007252D02*
X005107Y007252D01*
X004950Y007411D02*
X004310Y007411D01*
X004310Y007569D02*
X004885Y007569D01*
X004880Y007728D02*
X004310Y007728D01*
X004310Y007886D02*
X004924Y007886D01*
X005037Y008045D02*
X004310Y008045D01*
X004310Y008203D02*
X005225Y008203D01*
X005281Y008180D02*
X006079Y008180D01*
X006263Y008104D01*
X006404Y007963D01*
X006418Y007930D01*
X006730Y007930D01*
X006822Y007892D01*
X009426Y005288D01*
X009431Y005293D01*
X009592Y005360D01*
X009646Y005360D01*
X006576Y008430D01*
X006418Y008430D01*
X006404Y008397D01*
X006263Y008256D01*
X006079Y008180D01*
X005281Y008180D01*
X004991Y008362D02*
X004310Y008362D01*
X004310Y008520D02*
X004905Y008520D01*
X004880Y008679D02*
X004310Y008679D01*
X004310Y008837D02*
X004904Y008837D01*
X004988Y008996D02*
X004310Y008996D01*
X004310Y009154D02*
X005218Y009154D01*
X004310Y009313D02*
X007140Y009313D01*
X007140Y009198D02*
X007398Y008940D01*
X007762Y008940D01*
X008020Y009198D01*
X008020Y009562D01*
X007762Y009820D01*
X007398Y009820D01*
X007140Y009562D01*
X007140Y009198D01*
X007184Y009154D02*
X006142Y009154D01*
X006372Y008996D02*
X007342Y008996D01*
X007818Y008996D02*
X012373Y008996D01*
X012340Y008962D02*
X012340Y008598D01*
X012582Y008356D01*
X012431Y008293D01*
X012307Y008169D01*
X012240Y008008D01*
X012240Y007352D01*
X012307Y007191D01*
X012431Y007067D01*
X012592Y007000D01*
X012768Y007000D01*
X012929Y007067D01*
X013053Y007191D01*
X013120Y007352D01*
X013120Y008008D01*
X013053Y008169D01*
X012929Y008293D01*
X012816Y008340D01*
X012962Y008340D01*
X013220Y008598D01*
X013220Y008962D01*
X012962Y009220D01*
X012598Y009220D01*
X012340Y008962D01*
X012340Y008837D02*
X006877Y008837D01*
X007035Y008679D02*
X012340Y008679D01*
X012418Y008520D02*
X007194Y008520D01*
X007352Y008362D02*
X012576Y008362D01*
X012341Y008203D02*
X012019Y008203D01*
X012053Y008169D02*
X011929Y008293D01*
X011768Y008360D01*
X011592Y008360D01*
X011431Y008293D01*
X011307Y008169D01*
X011240Y008008D01*
X011240Y007352D01*
X011307Y007191D01*
X011431Y007067D01*
X011592Y007000D01*
X011768Y007000D01*
X011929Y007067D01*
X012053Y007191D01*
X012120Y007352D01*
X012120Y008008D01*
X012053Y008169D01*
X012105Y008045D02*
X012255Y008045D01*
X012240Y007886D02*
X012120Y007886D01*
X012120Y007728D02*
X012240Y007728D01*
X012240Y007569D02*
X012120Y007569D01*
X012120Y007411D02*
X012240Y007411D01*
X012282Y007252D02*
X012078Y007252D01*
X011956Y007094D02*
X012404Y007094D01*
X012956Y007094D02*
X013404Y007094D01*
X013431Y007067D02*
X013592Y007000D01*
X013768Y007000D01*
X013929Y007067D01*
X014053Y007191D01*
X014120Y007352D01*
X014120Y008008D01*
X014053Y008169D01*
X013929Y008293D01*
X013768Y008360D01*
X013592Y008360D01*
X013431Y008293D01*
X013307Y008169D01*
X013240Y008008D01*
X013240Y007352D01*
X013307Y007191D01*
X013431Y007067D01*
X013282Y007252D02*
X013078Y007252D01*
X013120Y007411D02*
X013240Y007411D01*
X013240Y007569D02*
X013120Y007569D01*
X013120Y007728D02*
X013240Y007728D01*
X013240Y007886D02*
X013120Y007886D01*
X013105Y008045D02*
X013255Y008045D01*
X013341Y008203D02*
X013019Y008203D01*
X012984Y008362D02*
X017008Y008362D01*
X017166Y008520D02*
X013142Y008520D01*
X013220Y008679D02*
X017325Y008679D01*
X017483Y008837D02*
X013220Y008837D01*
X013187Y008996D02*
X014192Y008996D01*
X014157Y009031D02*
X014281Y008907D01*
X014442Y008840D01*
X014618Y008840D01*
X014779Y008907D01*
X014903Y009031D01*
X014970Y009192D01*
X014970Y009368D01*
X014903Y009529D01*
X014779Y009653D01*
X014618Y009720D01*
X014442Y009720D01*
X014281Y009653D01*
X014157Y009529D01*
X014090Y009368D01*
X014090Y009192D01*
X014157Y009031D01*
X014106Y009154D02*
X013028Y009154D01*
X012962Y009340D02*
X012598Y009340D01*
X012340Y009598D01*
X012340Y009962D01*
X012598Y010220D01*
X012962Y010220D01*
X013220Y009962D01*
X013220Y009598D01*
X012962Y009340D01*
X013093Y009471D02*
X014133Y009471D01*
X014090Y009313D02*
X008020Y009313D01*
X008020Y009471D02*
X012467Y009471D01*
X012340Y009630D02*
X007953Y009630D01*
X007794Y009788D02*
X012340Y009788D01*
X012340Y009947D02*
X004310Y009947D01*
X004310Y010105D02*
X012483Y010105D01*
X013077Y010105D02*
X023848Y010105D01*
X023780Y010264D02*
X004311Y010264D01*
X004329Y010422D02*
X023780Y010422D01*
X023780Y010581D02*
X004380Y010581D01*
X004455Y010739D02*
X023932Y010739D01*
X024628Y010739D02*
X025065Y010739D01*
X025139Y010581D02*
X024780Y010581D01*
X024780Y010422D02*
X025191Y010422D01*
X025209Y010264D02*
X024780Y010264D01*
X024712Y010105D02*
X025210Y010105D01*
X025210Y009947D02*
X024554Y009947D01*
X024579Y009788D02*
X025210Y009788D01*
X025210Y009630D02*
X024738Y009630D01*
X024780Y009471D02*
X025210Y009471D01*
X025210Y009313D02*
X024801Y009313D01*
X024960Y009154D02*
X025210Y009154D01*
X025210Y008996D02*
X025103Y008996D01*
X025130Y008837D02*
X025210Y008837D01*
X025210Y008679D02*
X025130Y008679D01*
X025130Y008520D02*
X025210Y008520D01*
X025210Y008362D02*
X025130Y008362D01*
X025130Y008203D02*
X025210Y008203D01*
X025210Y008045D02*
X025130Y008045D01*
X025130Y007886D02*
X025210Y007886D01*
X025210Y007728D02*
X025130Y007728D01*
X025130Y007569D02*
X025210Y007569D01*
X025210Y007411D02*
X025130Y007411D01*
X025098Y007252D02*
X025210Y007252D01*
X025210Y007094D02*
X024947Y007094D01*
X024789Y006935D02*
X025210Y006935D01*
X025210Y006777D02*
X024630Y006777D01*
X024472Y006618D02*
X025210Y006618D01*
X025210Y006460D02*
X024313Y006460D01*
X024379Y006301D02*
X024155Y006301D01*
X024240Y006143D02*
X023960Y006143D01*
X024240Y005984D02*
X014930Y005984D01*
X014930Y005826D02*
X024240Y005826D01*
X024371Y005667D02*
X014930Y005667D01*
X014930Y005509D02*
X024430Y005509D01*
X024430Y005350D02*
X023932Y005350D01*
X024091Y005192D02*
X024430Y005192D01*
X024430Y005033D02*
X024120Y005033D01*
X024120Y004875D02*
X024430Y004875D01*
X024430Y004716D02*
X024038Y004716D01*
X023880Y004558D02*
X024430Y004558D01*
X024430Y004399D02*
X023453Y004399D01*
X023294Y004241D02*
X024430Y004241D01*
X024430Y004082D02*
X023136Y004082D01*
X022977Y003924D02*
X024430Y003924D01*
X024430Y003765D02*
X022819Y003765D01*
X022800Y003607D02*
X022660Y003607D01*
X022428Y004082D02*
X021944Y004082D01*
X021929Y004067D02*
X022053Y004191D01*
X022120Y004352D01*
X022120Y005008D01*
X022053Y005169D01*
X021929Y005293D01*
X021768Y005360D01*
X021592Y005360D01*
X021431Y005293D01*
X021307Y005169D01*
X021240Y005008D01*
X021240Y004352D01*
X021307Y004191D01*
X021431Y004067D01*
X021592Y004000D01*
X021768Y004000D01*
X021929Y004067D01*
X022074Y004241D02*
X022587Y004241D01*
X022745Y004399D02*
X022120Y004399D01*
X022120Y004558D02*
X022904Y004558D01*
X023062Y004716D02*
X022120Y004716D01*
X022120Y004875D02*
X023221Y004875D01*
X023240Y005033D02*
X022109Y005033D01*
X022031Y005192D02*
X023269Y005192D01*
X023428Y005350D02*
X021792Y005350D01*
X021568Y005350D02*
X020792Y005350D01*
X020768Y005360D02*
X020592Y005360D01*
X020431Y005293D01*
X020307Y005169D01*
X020240Y005008D01*
X020240Y004352D01*
X020307Y004191D01*
X020431Y004067D01*
X020592Y004000D01*
X020768Y004000D01*
X020929Y004067D01*
X021053Y004191D01*
X021120Y004352D01*
X021120Y005008D01*
X021053Y005169D01*
X020929Y005293D01*
X020768Y005360D01*
X020568Y005350D02*
X019792Y005350D01*
X019768Y005360D02*
X019592Y005360D01*
X019431Y005293D01*
X019307Y005169D01*
X019240Y005008D01*
X019240Y004352D01*
X019307Y004191D01*
X019431Y004067D01*
X019592Y004000D01*
X019768Y004000D01*
X019929Y004067D01*
X020053Y004191D01*
X020120Y004352D01*
X020120Y005008D01*
X020053Y005169D01*
X019929Y005293D01*
X019768Y005360D01*
X019568Y005350D02*
X018792Y005350D01*
X018768Y005360D02*
X018592Y005360D01*
X018431Y005293D01*
X018307Y005169D01*
X018240Y005008D01*
X018240Y004352D01*
X018307Y004191D01*
X018431Y004067D01*
X018592Y004000D01*
X018768Y004000D01*
X018929Y004067D01*
X019053Y004191D01*
X019120Y004352D01*
X019120Y005008D01*
X019053Y005169D01*
X018929Y005293D01*
X018768Y005360D01*
X018568Y005350D02*
X017792Y005350D01*
X017768Y005360D02*
X017592Y005360D01*
X017431Y005293D01*
X017307Y005169D01*
X017240Y005008D01*
X017240Y004352D01*
X017307Y004191D01*
X017431Y004067D01*
X017592Y004000D01*
X017768Y004000D01*
X017929Y004067D01*
X018053Y004191D01*
X018120Y004352D01*
X018120Y005008D01*
X018053Y005169D01*
X017929Y005293D01*
X017768Y005360D01*
X017568Y005350D02*
X016792Y005350D01*
X016768Y005360D02*
X016592Y005360D01*
X016431Y005293D01*
X016307Y005169D01*
X016240Y005008D01*
X016240Y004352D01*
X016307Y004191D01*
X016431Y004067D01*
X016592Y004000D01*
X016768Y004000D01*
X016929Y004067D01*
X017053Y004191D01*
X017120Y004352D01*
X017120Y005008D01*
X017053Y005169D01*
X016929Y005293D01*
X016768Y005360D01*
X016568Y005350D02*
X014930Y005350D01*
X015031Y005192D02*
X016329Y005192D01*
X016251Y005033D02*
X015109Y005033D01*
X015120Y004875D02*
X016240Y004875D01*
X016240Y004716D02*
X015120Y004716D01*
X015120Y004558D02*
X016240Y004558D01*
X016240Y004399D02*
X015120Y004399D01*
X015074Y004241D02*
X016286Y004241D01*
X016416Y004082D02*
X014944Y004082D01*
X014240Y004558D02*
X014120Y004558D01*
X014120Y004716D02*
X014240Y004716D01*
X014240Y004875D02*
X014120Y004875D01*
X014109Y005033D02*
X014251Y005033D01*
X014329Y005192D02*
X014031Y005192D01*
X013792Y005350D02*
X014430Y005350D01*
X014430Y005509D02*
X010205Y005509D01*
X010047Y005667D02*
X014430Y005667D01*
X014430Y005826D02*
X009888Y005826D01*
X009730Y005984D02*
X014430Y005984D01*
X014430Y006143D02*
X009571Y006143D01*
X009413Y006301D02*
X014430Y006301D01*
X014430Y006460D02*
X009254Y006460D01*
X009096Y006618D02*
X014430Y006618D01*
X014449Y006777D02*
X008937Y006777D01*
X008779Y006935D02*
X014581Y006935D01*
X014740Y007094D02*
X013956Y007094D01*
X014078Y007252D02*
X014898Y007252D01*
X015057Y007411D02*
X014120Y007411D01*
X014120Y007569D02*
X015215Y007569D01*
X015240Y007728D02*
X014120Y007728D01*
X014120Y007886D02*
X015240Y007886D01*
X015255Y008045D02*
X014105Y008045D01*
X014019Y008203D02*
X015341Y008203D01*
X016019Y008203D02*
X016341Y008203D01*
X016255Y008045D02*
X016105Y008045D01*
X017120Y007728D02*
X017240Y007728D01*
X017240Y007569D02*
X017120Y007569D01*
X017120Y007411D02*
X017240Y007411D01*
X017282Y007252D02*
X017078Y007252D01*
X016956Y007094D02*
X017404Y007094D01*
X018071Y006935D02*
X015289Y006935D01*
X015130Y006777D02*
X018230Y006777D01*
X018388Y006618D02*
X014972Y006618D01*
X014930Y006460D02*
X018547Y006460D01*
X018705Y006301D02*
X014930Y006301D01*
X014930Y006143D02*
X018900Y006143D01*
X019031Y005192D02*
X019329Y005192D01*
X019251Y005033D02*
X019109Y005033D01*
X019120Y004875D02*
X019240Y004875D01*
X019240Y004716D02*
X019120Y004716D01*
X019120Y004558D02*
X019240Y004558D01*
X019240Y004399D02*
X019120Y004399D01*
X019074Y004241D02*
X019286Y004241D01*
X019416Y004082D02*
X018944Y004082D01*
X018416Y004082D02*
X017944Y004082D01*
X018074Y004241D02*
X018286Y004241D01*
X018240Y004399D02*
X018120Y004399D01*
X018120Y004558D02*
X018240Y004558D01*
X018240Y004716D02*
X018120Y004716D01*
X018120Y004875D02*
X018240Y004875D01*
X018251Y005033D02*
X018109Y005033D01*
X018031Y005192D02*
X018329Y005192D01*
X017329Y005192D02*
X017031Y005192D01*
X017109Y005033D02*
X017251Y005033D01*
X017240Y004875D02*
X017120Y004875D01*
X017120Y004716D02*
X017240Y004716D01*
X017240Y004558D02*
X017120Y004558D01*
X017120Y004399D02*
X017240Y004399D01*
X017286Y004241D02*
X017074Y004241D01*
X016944Y004082D02*
X017416Y004082D01*
X019944Y004082D02*
X020416Y004082D01*
X020286Y004241D02*
X020074Y004241D01*
X020120Y004399D02*
X020240Y004399D01*
X020240Y004558D02*
X020120Y004558D01*
X020120Y004716D02*
X020240Y004716D01*
X020240Y004875D02*
X020120Y004875D01*
X020109Y005033D02*
X020251Y005033D01*
X020329Y005192D02*
X020031Y005192D01*
X021031Y005192D02*
X021329Y005192D01*
X021251Y005033D02*
X021109Y005033D01*
X021120Y004875D02*
X021240Y004875D01*
X021240Y004716D02*
X021120Y004716D01*
X021120Y004558D02*
X021240Y004558D01*
X021240Y004399D02*
X021120Y004399D01*
X021074Y004241D02*
X021286Y004241D01*
X021416Y004082D02*
X020944Y004082D01*
X023560Y003607D02*
X024430Y003607D01*
X024430Y003448D02*
X023686Y003448D01*
X023750Y003290D02*
X024517Y003290D01*
X024630Y003131D02*
X023750Y003131D01*
X023711Y002973D02*
X024619Y002973D01*
X025130Y003131D02*
X025139Y003131D01*
X025130Y003290D02*
X025191Y003290D01*
X025209Y003448D02*
X025066Y003448D01*
X024930Y003607D02*
X025210Y003607D01*
X025210Y003765D02*
X024930Y003765D01*
X024930Y003924D02*
X025210Y003924D01*
X025210Y004082D02*
X024930Y004082D01*
X024930Y004241D02*
X025210Y004241D01*
X025210Y004399D02*
X024930Y004399D01*
X024930Y004558D02*
X025210Y004558D01*
X025210Y004716D02*
X024930Y004716D01*
X024930Y004875D02*
X025210Y004875D01*
X025210Y005033D02*
X024930Y005033D01*
X024930Y005192D02*
X025210Y005192D01*
X025210Y005350D02*
X024930Y005350D01*
X024930Y005509D02*
X025210Y005509D01*
X025210Y005667D02*
X024989Y005667D01*
X025120Y005826D02*
X025210Y005826D01*
X025210Y005984D02*
X025120Y005984D01*
X025120Y006143D02*
X025210Y006143D01*
X025210Y006301D02*
X024981Y006301D01*
X022871Y008679D02*
X019035Y008679D01*
X018877Y008837D02*
X021901Y008837D01*
X021998Y008740D02*
X022362Y008740D01*
X022620Y008998D01*
X022620Y009362D01*
X022362Y009620D01*
X021998Y009620D01*
X021740Y009362D01*
X021740Y008998D01*
X021998Y008740D01*
X021742Y008996D02*
X018718Y008996D01*
X018620Y009154D02*
X021740Y009154D01*
X021740Y009313D02*
X018620Y009313D01*
X018511Y009471D02*
X021849Y009471D01*
X022511Y009471D02*
X022780Y009471D01*
X022780Y009313D02*
X022620Y009313D01*
X022620Y009154D02*
X022799Y009154D01*
X022957Y008996D02*
X022618Y008996D01*
X022459Y008837D02*
X023030Y008837D01*
X023073Y008880D02*
X023487Y008880D01*
X023530Y008837D01*
X023530Y008876D01*
X023507Y008900D01*
X023487Y008880D01*
X023073Y008880D01*
X023780Y009334D02*
X023780Y009587D01*
X023780Y009334D01*
X023780Y009334D01*
X023780Y009471D02*
X023780Y009471D01*
X023738Y009630D02*
X023822Y009630D01*
X023981Y009788D02*
X023579Y009788D01*
X024006Y009947D02*
X013220Y009947D01*
X013220Y009788D02*
X022981Y009788D01*
X022822Y009630D02*
X016703Y009630D01*
X016679Y009653D02*
X016803Y009529D01*
X016870Y009368D01*
X016870Y009192D01*
X016803Y009031D01*
X016679Y008907D01*
X016518Y008840D01*
X016342Y008840D01*
X016181Y008907D01*
X016057Y009031D01*
X015990Y009192D01*
X015990Y009368D01*
X016057Y009529D01*
X016181Y009653D01*
X016342Y009720D01*
X016518Y009720D01*
X016679Y009653D01*
X016827Y009471D02*
X017849Y009471D01*
X017740Y009313D02*
X016870Y009313D01*
X016854Y009154D02*
X017740Y009154D01*
X017642Y008996D02*
X016768Y008996D01*
X016092Y008996D02*
X014868Y008996D01*
X014954Y009154D02*
X016006Y009154D01*
X015990Y009313D02*
X014970Y009313D01*
X014927Y009471D02*
X016033Y009471D01*
X016157Y009630D02*
X014803Y009630D01*
X014257Y009630D02*
X013220Y009630D01*
X012532Y009154D02*
X007976Y009154D01*
X007140Y009471D02*
X004310Y009471D01*
X004310Y009630D02*
X007207Y009630D01*
X007366Y009788D02*
X004310Y009788D01*
X004570Y010898D02*
X024950Y010898D01*
X024749Y011056D02*
X004771Y011056D01*
X006369Y008362D02*
X006645Y008362D01*
X006803Y008203D02*
X006135Y008203D01*
X006323Y008045D02*
X006962Y008045D01*
X006828Y007886D02*
X007120Y007886D01*
X006986Y007728D02*
X007279Y007728D01*
X007145Y007569D02*
X007437Y007569D01*
X007303Y007411D02*
X007596Y007411D01*
X007462Y007252D02*
X007754Y007252D01*
X007620Y007094D02*
X007913Y007094D01*
X007779Y006935D02*
X008071Y006935D01*
X007937Y006777D02*
X008230Y006777D01*
X008096Y006618D02*
X008388Y006618D01*
X008254Y006460D02*
X008547Y006460D01*
X008413Y006301D02*
X008705Y006301D01*
X008571Y006143D02*
X008864Y006143D01*
X008730Y005984D02*
X009022Y005984D01*
X008888Y005826D02*
X009181Y005826D01*
X009047Y005667D02*
X009339Y005667D01*
X009205Y005509D02*
X009498Y005509D01*
X009568Y005350D02*
X009364Y005350D01*
X008568Y005350D02*
X008020Y005350D01*
X008020Y005509D02*
X008498Y005509D01*
X008339Y005667D02*
X007915Y005667D01*
X008181Y005826D02*
X006461Y005826D01*
X006480Y005667D02*
X007245Y005667D01*
X007140Y005509D02*
X006450Y005509D01*
X006383Y005984D02*
X008022Y005984D01*
X007864Y006143D02*
X006170Y006143D01*
X008014Y005192D02*
X008329Y005192D01*
X010364Y005350D02*
X010568Y005350D01*
X010792Y005350D02*
X011568Y005350D01*
X011792Y005350D02*
X012568Y005350D01*
X012792Y005350D02*
X013568Y005350D01*
X013329Y005192D02*
X013031Y005192D01*
X013109Y005033D02*
X013251Y005033D01*
X013240Y004875D02*
X013120Y004875D01*
X013120Y004716D02*
X013240Y004716D01*
X013240Y004558D02*
X013120Y004558D01*
X013120Y004399D02*
X013240Y004399D01*
X013286Y004241D02*
X013074Y004241D01*
X012286Y004241D02*
X012074Y004241D01*
X012120Y004399D02*
X012240Y004399D01*
X012240Y004558D02*
X012120Y004558D01*
X012120Y004716D02*
X012240Y004716D01*
X012240Y004875D02*
X012120Y004875D01*
X012109Y005033D02*
X012251Y005033D01*
X012329Y005192D02*
X012031Y005192D01*
X011329Y005192D02*
X011031Y005192D01*
X011109Y005033D02*
X011251Y005033D01*
X011240Y004875D02*
X011120Y004875D01*
X011120Y004716D02*
X011240Y004716D01*
X011240Y004558D02*
X011120Y004558D01*
X011120Y004399D02*
X011240Y004399D01*
X011286Y004241D02*
X011074Y004241D01*
X014120Y004399D02*
X014145Y004399D01*
X015956Y007094D02*
X016404Y007094D01*
X016282Y007252D02*
X016078Y007252D01*
X016120Y007411D02*
X016240Y007411D01*
X011404Y007094D02*
X010956Y007094D01*
X010929Y007067D02*
X011053Y007191D01*
X011120Y007352D01*
X011120Y008008D01*
X011053Y008169D01*
X010929Y008293D01*
X010768Y008360D01*
X010592Y008360D01*
X010431Y008293D01*
X010307Y008169D01*
X010240Y008008D01*
X010240Y007352D01*
X010307Y007191D01*
X010431Y007067D01*
X010592Y007000D01*
X010768Y007000D01*
X010929Y007067D01*
X011078Y007252D02*
X011282Y007252D01*
X011240Y007411D02*
X011120Y007411D01*
X011120Y007569D02*
X011240Y007569D01*
X011240Y007728D02*
X011120Y007728D01*
X011120Y007886D02*
X011240Y007886D01*
X011255Y008045D02*
X011105Y008045D01*
X011019Y008203D02*
X011341Y008203D01*
X010341Y008203D02*
X010019Y008203D01*
X010053Y008169D02*
X009929Y008293D01*
X009768Y008360D01*
X009592Y008360D01*
X009431Y008293D01*
X009307Y008169D01*
X009240Y008008D01*
X009240Y007352D01*
X009307Y007191D01*
X009431Y007067D01*
X009592Y007000D01*
X009768Y007000D01*
X009929Y007067D01*
X010053Y007191D01*
X010120Y007352D01*
X010120Y008008D01*
X010053Y008169D01*
X010105Y008045D02*
X010255Y008045D01*
X010240Y007886D02*
X010120Y007886D01*
X010120Y007728D02*
X010240Y007728D01*
X010240Y007569D02*
X010120Y007569D01*
X010120Y007411D02*
X010240Y007411D01*
X010282Y007252D02*
X010078Y007252D01*
X009956Y007094D02*
X010404Y007094D01*
X009404Y007094D02*
X008956Y007094D01*
X009078Y007252D02*
X009282Y007252D01*
X009240Y007411D02*
X009120Y007411D01*
X009120Y007569D02*
X009240Y007569D01*
X009240Y007728D02*
X009120Y007728D01*
X009120Y007886D02*
X009240Y007886D01*
X009255Y008045D02*
X009105Y008045D01*
X009019Y008203D02*
X009341Y008203D01*
X008341Y008203D02*
X007511Y008203D01*
X007669Y008045D02*
X008255Y008045D01*
X008240Y007886D02*
X007828Y007886D01*
X007986Y007728D02*
X008240Y007728D01*
X008240Y007569D02*
X008145Y007569D01*
X006754Y007252D02*
X006253Y007252D01*
X006410Y007411D02*
X006596Y007411D01*
M02*
