G75*
G70*
%OFA0B0*%
%FSLAX24Y24*%
%IPPOS*%
%LPD*%
%AMOC8*
5,1,8,0,0,1.08239X$1,22.5*
%
%ADD10R,0.0820X0.0820*%
%ADD11C,0.0820*%
%ADD12C,0.0560*%
%ADD13C,0.0560*%
%ADD14OC8,0.0560*%
%ADD15R,0.0680X0.0680*%
%ADD16OC8,0.0680*%
%ADD17C,0.0680*%
D10*
X005180Y003180D03*
D11*
X006180Y003180D03*
X007180Y003180D03*
X008180Y003180D03*
X009180Y003180D03*
X010180Y003180D03*
X011180Y003180D03*
X012180Y003180D03*
X013180Y003180D03*
X014180Y003180D03*
X015180Y003180D03*
X016180Y003180D03*
X017180Y003180D03*
X018180Y003180D03*
X019180Y003180D03*
X020180Y003180D03*
X021180Y003180D03*
X022180Y003180D03*
X023180Y003180D03*
X024180Y003180D03*
D12*
X021680Y004440D02*
X021680Y004920D01*
X020680Y004920D02*
X020680Y004440D01*
X019680Y004440D02*
X019680Y004920D01*
X018680Y004920D02*
X018680Y004440D01*
X017680Y004440D02*
X017680Y004920D01*
X016680Y004920D02*
X016680Y004440D01*
X015680Y004440D02*
X015680Y004920D01*
X014680Y004920D02*
X014680Y004440D01*
X013680Y004440D02*
X013680Y004920D01*
X012680Y004920D02*
X012680Y004440D01*
X011680Y004440D02*
X011680Y004920D01*
X010680Y004920D02*
X010680Y004440D01*
X009680Y004440D02*
X009680Y004920D01*
X008680Y004920D02*
X008680Y004440D01*
X008680Y007440D02*
X008680Y007920D01*
X009680Y007920D02*
X009680Y007440D01*
X010680Y007440D02*
X010680Y007920D01*
X011680Y007920D02*
X011680Y007440D01*
X012680Y007440D02*
X012680Y007920D01*
X013680Y007920D02*
X013680Y007440D01*
X014680Y007440D02*
X014680Y007920D01*
X015680Y007920D02*
X015680Y007440D01*
X016680Y007440D02*
X016680Y007920D01*
X017680Y007920D02*
X017680Y007440D01*
X018680Y007440D02*
X018680Y007920D01*
X019680Y007920D02*
X019680Y007440D01*
X020680Y007440D02*
X020680Y007920D01*
X021680Y007920D02*
X021680Y007440D01*
D13*
X016430Y009280D03*
X014530Y009280D03*
D14*
X012780Y008780D03*
X011780Y008780D03*
X011780Y009780D03*
X012780Y009780D03*
X018180Y009180D03*
X022180Y009180D03*
X022680Y005980D03*
X023680Y004980D03*
X024680Y005980D03*
X007580Y005380D03*
X007580Y009380D03*
D15*
X024280Y008380D03*
D16*
X023280Y008380D03*
X023280Y009380D03*
X024280Y009380D03*
X024280Y010380D03*
X023280Y010380D03*
D17*
X005980Y008680D02*
X005380Y008680D01*
X005380Y007680D02*
X005980Y007680D01*
X005980Y006680D02*
X005380Y006680D01*
X005380Y005680D02*
X005980Y005680D01*
M02*
