G75*
G70*
%OFA0B0*%
%FSLAX24Y24*%
%IPPOS*%
%LPD*%
%AMOC8*
5,1,8,0,0,1.08239X$1,22.5*
%
%ADD10R,0.0740X0.0740*%
%ADD11C,0.0740*%
%ADD12C,0.0480*%
%ADD13C,0.0480*%
%ADD14OC8,0.0480*%
%ADD15R,0.0600X0.0600*%
%ADD16OC8,0.0600*%
%ADD17C,0.0600*%
%ADD18R,0.0460X0.0630*%
%ADD19C,0.0100*%
%ADD20C,0.0160*%
D10*
X005180Y003180D03*
D11*
X006180Y003180D03*
X007180Y003180D03*
X008180Y003180D03*
X009180Y003180D03*
X010180Y003180D03*
X011180Y003180D03*
X012180Y003180D03*
X013180Y003180D03*
X014180Y003180D03*
X015180Y003180D03*
X016180Y003180D03*
X017180Y003180D03*
X018180Y003180D03*
X019180Y003180D03*
X020180Y003180D03*
X021180Y003180D03*
X022180Y003180D03*
X023180Y003180D03*
X024180Y003180D03*
D12*
X021680Y004440D02*
X021680Y004920D01*
X020680Y004920D02*
X020680Y004440D01*
X019680Y004440D02*
X019680Y004920D01*
X018680Y004920D02*
X018680Y004440D01*
X017680Y004440D02*
X017680Y004920D01*
X016680Y004920D02*
X016680Y004440D01*
X015680Y004440D02*
X015680Y004920D01*
X014680Y004920D02*
X014680Y004440D01*
X013680Y004440D02*
X013680Y004920D01*
X012680Y004920D02*
X012680Y004440D01*
X011680Y004440D02*
X011680Y004920D01*
X010680Y004920D02*
X010680Y004440D01*
X009680Y004440D02*
X009680Y004920D01*
X008680Y004920D02*
X008680Y004440D01*
X008680Y007440D02*
X008680Y007920D01*
X009680Y007920D02*
X009680Y007440D01*
X010680Y007440D02*
X010680Y007920D01*
X011680Y007920D02*
X011680Y007440D01*
X012680Y007440D02*
X012680Y007920D01*
X013680Y007920D02*
X013680Y007440D01*
X014680Y007440D02*
X014680Y007920D01*
X015680Y007920D02*
X015680Y007440D01*
X016680Y007440D02*
X016680Y007920D01*
X017680Y007920D02*
X017680Y007440D01*
X018680Y007440D02*
X018680Y007920D01*
X019680Y007920D02*
X019680Y007440D01*
X020680Y007440D02*
X020680Y007920D01*
X021680Y007920D02*
X021680Y007440D01*
D13*
X016430Y009280D03*
X014530Y009280D03*
D14*
X012780Y008780D03*
X011780Y008780D03*
X011780Y009780D03*
X012780Y009780D03*
X018180Y009180D03*
X022180Y009180D03*
X022680Y005980D03*
X023680Y004980D03*
X024680Y005980D03*
X007580Y005380D03*
X007580Y009380D03*
D15*
X024280Y008380D03*
D16*
X023280Y008380D03*
X023280Y009380D03*
X024280Y009380D03*
X024280Y010380D03*
X023280Y010380D03*
D17*
X005980Y008680D02*
X005380Y008680D01*
X005380Y007680D02*
X005980Y007680D01*
X005980Y006680D02*
X005380Y006680D01*
X005380Y005680D02*
X005980Y005680D01*
D18*
X005880Y004380D03*
X005280Y004380D03*
X004680Y004380D03*
X006680Y004380D03*
X007280Y004380D03*
X007880Y004380D03*
D19*
X007680Y004380D01*
X007680Y004680D01*
X007180Y005180D01*
X007180Y009380D01*
X004880Y009380D01*
X004680Y009180D01*
X004680Y006680D01*
X005680Y005680D01*
X004680Y004680D01*
X004680Y004380D01*
X005880Y004380D02*
X006680Y004380D01*
X006680Y006180D01*
X006180Y006680D01*
X005680Y006680D01*
X007580Y005380D02*
X007580Y008780D01*
X009680Y010880D01*
X023780Y010880D01*
X024280Y010380D01*
X022180Y009180D02*
X022180Y004680D01*
X023180Y003680D01*
X023180Y003180D01*
X021680Y003680D02*
X021180Y003180D01*
X020680Y003680D02*
X020680Y004680D01*
X020180Y004180D02*
X019180Y003180D01*
X020180Y003180D02*
X020680Y003680D01*
X020180Y004180D02*
X020180Y005180D01*
X020680Y005680D01*
X020680Y007680D01*
X017180Y008530D02*
X016430Y009280D01*
X015930Y009780D01*
X012780Y009780D01*
X014030Y008780D02*
X014530Y009280D01*
X015180Y008630D01*
X015180Y006680D01*
X016180Y005680D01*
X016180Y005180D01*
X016680Y004680D01*
X017180Y005180D02*
X017180Y008530D01*
X014680Y007680D02*
X014680Y006680D01*
X015680Y005680D01*
X015680Y004680D01*
X015180Y004180D02*
X016180Y003180D01*
X015180Y003180D02*
X013680Y004680D01*
X013180Y004180D02*
X014180Y003180D01*
X013180Y003180D02*
X012680Y003680D01*
X012680Y004680D01*
X013180Y005180D02*
X013180Y004180D01*
X011680Y004180D02*
X011180Y003680D01*
X011180Y003180D01*
X011180Y004180D02*
X010180Y003180D01*
X010180Y004180D02*
X009180Y003180D01*
X009180Y004180D02*
X008180Y003180D01*
X007280Y003980D02*
X007180Y003880D01*
X006880Y003880D01*
X006180Y003180D01*
X007280Y003980D02*
X007280Y004380D01*
X006680Y004380D02*
X006680Y004180D01*
X007980Y005380D02*
X008680Y004680D01*
X009180Y005180D02*
X009180Y004180D01*
X010180Y004180D02*
X010180Y005180D01*
X009680Y005680D01*
X009680Y007680D01*
X008680Y007680D02*
X008680Y005680D01*
X009180Y005180D01*
X007980Y005380D02*
X007580Y005380D01*
X010680Y005680D02*
X011180Y005180D01*
X011180Y004180D01*
X011680Y004180D02*
X011680Y004680D01*
X012680Y005680D02*
X013180Y005180D01*
X012680Y005680D02*
X012680Y007680D01*
X012180Y007180D02*
X011680Y007680D01*
X012180Y007180D02*
X012180Y003180D01*
X015180Y004180D02*
X015180Y005180D01*
X013680Y006680D01*
X013680Y007680D01*
X014030Y008780D02*
X012780Y008780D01*
X010680Y007680D02*
X010680Y005680D01*
X017180Y005180D02*
X017680Y004680D01*
X018680Y004680D02*
X017180Y003180D01*
X018180Y003180D02*
X019680Y004680D01*
X021680Y004680D02*
X021680Y003680D01*
X007580Y009380D02*
X007180Y009380D01*
D20*
X005280Y004380D02*
X005280Y003180D01*
X005180Y003180D01*
M02*
